<!--?xml version="1.0" encoding="utf-8"?-->
<!-- Svg Vector Icons : http://www.onlinewebfonts.com/icon -->

<svg version="1.1" xmlns="http://www.w3.org/2000/svg" xmlns:xlink="http://www.w3.org/1999/xlink" x="0px" y="0px" viewBox="0 0 256 256" enable-background="new 0 0 256 256" xml:space="preserve">
<metadata> Svg Vector Icons : http://www.onlinewebfonts.com/icon </metadata>
<g><g><g><path fill="#038eeb" data-title="Layer 0" xs="0" d="M117.2,10.4C89,13.1,63.1,25.6,43.4,46C29,60.7,19.1,78.4,13.8,98.2c-8.1,30.9-3.2,64.1,13.5,91.4c4.7,7.5,10.3,14.6,17.2,21.5c9.7,9.7,17.9,15.8,29.3,21.7c38.4,19.8,83.5,17.3,119.3-6.5c50.4-33.5,67.3-98.7,39.6-152.4c-5.9-11.3-11.9-19.6-21.7-29.3c-9.5-9.5-19-16.4-30.5-22.1C161.3,12.8,138.4,8.4,117.2,10.4z M143.4,25.9c46.8,7.3,82.8,45.3,87.4,92.2c2.5,25.6-4.7,51.2-20.4,72.2c-4.2,5.6-14.5,15.9-20.1,20.1c-41,30.6-96.9,27.3-133.7-7.9c-16.7-16-27.2-36.3-30.9-59.5c-1.1-7.1-1.1-22.9,0-30.2c7.3-46.9,44.6-82.5,91.6-87.6C122.8,24.6,137.9,25,143.4,25.9z"/><path fill="#038eeb" data-title="Layer 1" xs="1" d="M124.9,77.1c-0.8,0.5-2.1,1.5-2.8,2.4l-1.2,1.6l-0.1,31.5c-0.1,35-0.2,33.5,3,35.9l1.7,1.3l24.2,0.1c26.9,0.1,26.2,0.2,28.6-3c1.8-2.4,1.8-6.1,0-8.5c-2.4-3.1-2.3-3.1-23.6-3.1h-19.2v-26.6c0-29.5,0.1-28.5-3.1-30.9C130.3,76.4,127,76,124.9,77.1z"/></g></g></g>
</svg>