<!--?xml version="1.0" encoding="utf-8"?-->
<!-- Svg Vector Icons : http://www.onlinewebfonts.com/icon -->

<svg version="1.1" xmlns="http://www.w3.org/2000/svg" xmlns:xlink="http://www.w3.org/1999/xlink" x="0px" y="0px" viewBox="0 0 256 256" enable-background="new 0 0 256 256" xml:space="preserve">
<metadata> Svg Vector Icons : http://www.onlinewebfonts.com/icon </metadata>
<g><g><g><path fill="#0000be" data-title="Layer 0" xs="0" d="M117.5,19.5l0.2,9.8l-7.8,5.5c-4.3,3-7.8,5.5-7.8,5.6c0,0.1,4.1,1.5,9.1,3.1l9.1,2.8l2.7,8.8c1.5,4.8,2.9,8.9,3,9.1c0.2,0.2,2.7-3.1,5.7-7.3l5.4-7.7l9.8,0.1l9.8,0l-5.5-7.3c-3-4-5.6-7.5-5.8-7.8c-0.1-0.3,1.1-4.5,2.7-9.4c1.7-5,2.9-9,2.8-9.1c-0.1-0.1-4.1,1.2-9,2.9c-4.9,1.7-9.1,2.9-9.4,2.7c-0.3-0.2-3.9-2.9-7.9-5.9l-7.4-5.6L117.5,19.5z"/><path fill="#0000be" data-title="Layer 1" xs="1" d="M60.2,89.7c0.1,11.2,0.3,25.3,0.4,31.3l0.1,11.1L36,149.7c-13.6,9.7-25.1,17.7-25.4,18c-0.4,0.2-0.6,0.5-0.5,0.6c0.1,0.1,13.6,4.4,29.8,9.4l29.6,9.2l9.2,29.6c5,16.2,9.3,29.7,9.4,29.8c0.1,0.1,0.4-0.1,0.6-0.5c0.2-0.4,8.3-11.8,18-25.4l17.5-24.8l10.9,0.1c6,0,20,0.2,31.3,0.4l20.5,0.3l-8.1-10.8c-4.4-6-12.9-17.3-18.7-25.2l-10.7-14.3l9.9-29.3c5.5-16.1,9.8-29.4,9.7-29.5s-2.4,0.5-5,1.4c-2.6,0.9-15.8,5.4-29.3,9.9l-24.6,8.3l-20.1-15C79,83.6,67.7,75.2,64.9,73.2l-5-3.7L60.2,89.7z"/><path fill="#0000be" data-title="Layer 2" xs="2" d="M221.7,107.3l-7.9,5.8l-9.3-3.1c-5.1-1.7-9.4-3.1-9.6-3.1c-0.2,0,1.1,4.3,2.9,9.5l3.2,9.5l-6,7.9l-6,8l10.1,0.1l10.1,0.1l5.7,8.1c3.1,4.4,5.8,8,5.9,7.9c0.1-0.1,1.5-4.4,3.1-9.5c1.6-5.1,3-9.3,3.1-9.4c0.1,0,4.3-1.4,9.4-3c5-1.6,9.3-3,9.4-3.1c0.1-0.1,0-0.4-0.4-0.6c-0.4-0.2-4-2.8-8.1-5.6l-7.4-5.3v-10c0-5.5-0.1-10-0.2-10S226.1,104.1,221.7,107.3z"/></g></g></g>
</svg>