<!--?xml version="1.0" encoding="utf-8"?-->
<!-- Svg Vector Icons : http://www.onlinewebfonts.com/icon -->

<svg version="1.1" xmlns="http://www.w3.org/2000/svg" xmlns:xlink="http://www.w3.org/1999/xlink" x="0px" y="0px" viewBox="0 0 256 256" enable-background="new 0 0 256 256" xml:space="preserve">
<metadata> Svg Vector Icons : http://www.onlinewebfonts.com/icon </metadata>
<g><g><g><path fill="#00d4ff" data-title="Layer 0" xs="0" d="M124.5,10.8c-1.9,0.8-4.1,3-4.6,4.5c-0.1,0.5-5.1,17.6-11.1,38.2c-6,20.5-11.4,39.1-12,41.1l-1.2,3.8H56.1c-39.3,0-39.5,0-41.6,1c-5.1,2.5-6.2,9.6-2,13.4c0.7,0.6,15.4,11.2,32.7,23.4l31.5,22.2l-2.1,6.4c-1.1,3.5-6.9,21.1-12.9,39.2c-5.9,18-10.8,33.1-10.8,33.4c0,0.3,0.2,1.4,0.5,2.3c1.3,4.8,6.9,7.6,11.3,5.7c0.8-0.4,15.7-10.7,33.1-22.9c17.3-12.2,31.9-22.2,32.2-22.3c0.4,0,14.9,10,32.3,22.1c17.4,12.2,32.3,22.5,33.2,22.9c2.7,1.4,7,0.8,9.4-1.4c1.4-1.2,2.6-4.1,2.6-6c0-1.2-3.5-12-9.3-29.2c-5.1-15.1-11-32.5-13.1-38.8l-3.8-11.4l31.4-22.2c17.3-12.2,32-22.6,32.6-23.2c1.4-1.3,2.8-4.3,2.8-6.2c0-2.4-1.7-5.4-3.8-6.9l-1.9-1.2l-40.1-0.2l-40.1-0.2l-11.7-40.1c-6.5-22.1-11.9-40.9-12.2-41.8c-1-3.5-4.7-6.4-8.3-6.4C127.1,10,125.5,10.4,124.5,10.8z"/></g></g></g>
</svg>